<svg width="16" height="18" viewBox="0 0 16 18" fill="none" xmlns="http://www.w3.org/2000/svg">
<path fill-rule="evenodd" clip-rule="evenodd" d="M6.16335 15.4391L7.33334 17C7.49084 17.21 7.7375 17.3333 8 17.3333C8.2625 17.3333 8.50916 17.21 8.66666 17L9.83665 15.4391C13.0891 14.6191 15.5 11.6725 15.5 8.16663C15.5 4.02746 12.1392 0.666626 8 0.666626C3.86083 0.666626 0.5 4.02746 0.5 8.16663C0.5 11.6725 2.91083 14.6191 6.16416 15.44L6.16335 15.4391ZM7.31335 14.1958C7.19169 14.0333 7.01417 13.9208 6.815 13.8791C4.1625 13.3316 2.16667 10.98 2.16667 8.16663C2.16667 4.94746 4.78083 2.33329 8 2.33329C11.2192 2.33329 13.8333 4.94746 13.8333 8.16663C13.8333 10.98 11.8375 13.3316 9.185 13.8791C8.98583 13.9208 8.80831 14.0333 8.68665 14.1958L8 15.1108L7.31335 14.1958ZM7.27165 11.9041C7.49498 12.3066 8.00249 12.4516 8.40415 12.2283C8.80665 12.005 8.95169 11.4975 8.72835 11.0958C8.50502 10.6933 7.99751 10.5483 7.59585 10.7716C7.19335 10.995 7.04831 11.5025 7.27165 11.9041ZM8.83333 8.99996V4.83329C8.83333 4.37329 8.46 3.99996 8 3.99996C7.54 3.99996 7.16667 4.37329 7.16667 4.83329V8.99996C7.16667 9.45996 7.54 9.83329 8 9.83329C8.46 9.83329 8.83333 9.45996 8.83333 8.99996Z" fill="#C6F5F3"/>
</svg>
