<svg width="17" height="17" viewBox="0 0 17 17" fill="none" xmlns="http://www.w3.org/2000/svg">
<g clip-path="url(#clip0_228_1248)">
<path d="M0 7.46939V11.869C0 13.1359 1.02705 14.163 2.294 14.163H14.706C15.973 14.163 17 13.1359 17 11.869V7.46939C17 7.24907 16.8214 7.07043 16.601 7.07043H0.398956C0.178633 7.07043 0 7.24907 0 7.46939ZM4.24446 10.2621H3.18058C2.79499 10.2621 2.48241 9.9495 2.48241 9.56391C2.48241 9.17832 2.79499 8.86574 3.18058 8.86574H4.24446C4.63006 8.86574 4.94264 9.17832 4.94264 9.56391C4.94264 9.9495 4.63006 10.2621 4.24446 10.2621Z" fill="#FFEF88"/>
<path d="M17 5.27509V5.13104C17 3.86408 15.973 2.83704 14.706 2.83704H2.294C1.02705 2.83704 0 3.86408 0 5.13104V5.27509C0 5.49542 0.178633 5.67405 0.398956 5.67405H16.601C16.8214 5.67405 17 5.49542 17 5.27509Z" fill="#FFEF88"/>
</g>
<defs>
<clipPath id="clip0_228_1248">
<rect width="17" height="17" fill="white"/>
</clipPath>
</defs>
</svg>
